<svg width="125" height="40" viewBox="0 0 125 40" fill="none" xmlns="http://www.w3.org/2000/svg">
<path d="M5.104 9.432C3.664 9.432 2.48 9.016 1.552 8.184C0.656 7.32 0.208 6.264 0.208 5.016C0.208 3.736 0.656 2.68 1.552 1.848C2.48 0.983997 3.664 0.551997 5.104 0.551997C6.512 0.551997 7.664 0.983997 8.56 1.848C9.488 2.68 9.952 3.736 9.952 5.016C9.952 6.264 9.488 7.32 8.56 8.184C7.664 9.016 6.512 9.432 5.104 9.432ZM9.184 12.216V39H0.976V12.216H9.184ZM31.4523 11.928C34.5883 11.928 37.0843 12.952 38.9403 15C40.8283 17.016 41.7723 19.8 41.7723 23.352V39H33.6123V24.456C33.6123 22.664 33.1483 21.272 32.2203 20.28C31.2923 19.288 30.0443 18.792 28.4763 18.792C26.9083 18.792 25.6603 19.288 24.7323 20.28C23.8043 21.272 23.3403 22.664 23.3403 24.456V39H15.1323V12.216H23.3403V15.768C24.1723 14.584 25.2923 13.656 26.7003 12.984C28.1083 12.28 29.6923 11.928 31.4523 11.928ZM113.996 11.928C117.324 11.928 119.964 12.936 121.916 14.952C123.9 16.968 124.892 19.768 124.892 23.352V39H116.732V24.456C116.732 22.728 116.268 21.4 115.34 20.472C114.444 19.512 113.196 19.032 111.596 19.032C109.996 19.032 108.732 19.512 107.804 20.472C106.908 21.4 106.46 22.728 106.46 24.456V39H98.2998V24.456C98.2998 22.728 97.8358 21.4 96.9078 20.472C96.0118 19.512 94.7638 19.032 93.1638 19.032C91.5638 19.032 90.2998 19.512 89.3718 20.472C88.4758 21.4 88.0278 22.728 88.0278 24.456V39H79.8198V12.216H88.0278V15.576C88.8598 14.456 89.9478 13.576 91.2918 12.936C92.6358 12.264 94.1558 11.928 95.8518 11.928C97.8678 11.928 99.6598 12.36 101.228 13.224C102.828 14.088 104.076 15.32 104.972 16.92C105.9 15.448 107.164 14.248 108.764 13.32C110.364 12.392 112.108 11.928 113.996 11.928Z" fill="black"/>
<path d="M73.924 12.216V39H65.716V35.352C64.884 36.536 63.748 37.496 62.308 38.232C60.9 38.936 59.332 39.288 57.604 39.288C55.556 39.288 53.748 38.84 52.18 37.944C50.612 37.016 49.396 35.688 48.532 33.96C47.668 32.232 47.236 30.2 47.236 27.864V12.216H55.396V26.76C55.396 28.552 55.86 29.944 56.788 30.936C57.716 31.928 58.964 32.424 60.532 32.424C62.132 32.424 63.396 31.928 64.324 30.936C65.252 29.944 65.716 28.552 65.716 26.76V12.216H73.924Z" fill="#4AA453"/>
</svg>
