<svg width="21" height="24" viewBox="0 0 21 24" fill="none" xmlns="http://www.w3.org/2000/svg">
<path d="M0.819672 1.52436V5.25666C0.819672 5.51361 0.956922 5.75166 1.17967 5.87991L10.2751 11.131C10.7548 11.4082 10.7548 12.1007 10.2751 12.3779L1.17967 17.629C0.956922 17.7577 0.819672 17.9953 0.819672 18.2522V21.9845C0.819672 22.5385 1.41952 22.885 1.89922 22.6078L19.618 12.3779C20.0977 12.1007 20.0977 11.4082 19.618 11.131L1.89922 0.900657C1.41952 0.623907 0.819672 0.969957 0.819672 1.52436Z" fill="white"/>
<path d="M19.618 11.131L1.89923 0.900655C1.81238 0.850255 1.72148 0.826855 1.63058 0.815155L18.718 10.6805C19.1977 10.9577 19.1977 11.6503 18.718 11.9275L0.999226 22.1578C0.954226 22.1839 0.906976 22.1992 0.860626 22.2145C0.999226 22.6258 1.49108 22.8436 1.89923 22.6078L19.618 12.3779C20.0981 12.1007 20.0981 11.4077 19.618 11.131Z" fill="white"/>
<path d="M0.819672 1.52436V5.25666C0.819672 5.51361 0.956922 5.75166 1.17967 5.87991L10.2751 11.131C10.7548 11.4082 10.7548 12.1007 10.2751 12.3779L1.17967 17.629C0.956922 17.7577 0.819672 17.9953 0.819672 18.2522V21.9845C0.819672 22.5385 1.41952 22.885 1.89922 22.6078L19.618 12.3779C20.0977 12.1007 20.0977 11.4082 19.618 11.131L1.89922 0.900657C1.41952 0.623907 0.819672 0.969957 0.819672 1.52436Z" stroke="white" stroke-miterlimit="10"/>
</svg>
