<svg width="45" height="45" viewBox="0 0 45 45" fill="none" xmlns="http://www.w3.org/2000/svg">
<g clip-path="url(#clip0_17_20)">
<path d="M25.8197 12.5244V16.2567C25.8197 16.5136 25.9569 16.7517 26.1797 16.8799L35.2751 22.131C35.7548 22.4082 35.7548 23.1007 35.2751 23.3779L26.1797 28.629C25.9569 28.7577 25.8197 28.9953 25.8197 29.2522V32.9845C25.8197 33.5385 26.4195 33.885 26.8992 33.6078L44.618 23.3779C45.0977 23.1007 45.0977 22.4082 44.618 22.131L26.8992 11.9007C26.4195 11.6239 25.8197 11.97 25.8197 12.5244Z" fill="white"/>
<path d="M44.618 22.131L26.8992 11.9007C26.8124 11.8503 26.7215 11.8269 26.6306 11.8152L43.718 21.6805C44.1977 21.9577 44.1977 22.6503 43.718 22.9275L25.9992 33.1578C25.9542 33.1839 25.907 33.1992 25.8606 33.2145C25.9992 33.6258 26.4911 33.8436 26.8992 33.6078L44.618 23.3779C45.0981 23.1007 45.0981 22.4077 44.618 22.131Z" fill="white"/>
<path d="M25.8197 12.5244V16.2567C25.8197 16.5136 25.9569 16.7517 26.1797 16.8799L35.2751 22.131C35.7548 22.4082 35.7548 23.1007 35.2751 23.3779L26.1797 28.629C25.9569 28.7577 25.8197 28.9953 25.8197 29.2522V32.9845C25.8197 33.5385 26.4195 33.885 26.8992 33.6078L44.618 23.3779C45.0977 23.1007 45.0977 22.4082 44.618 22.131L26.8992 11.9007C26.4195 11.6239 25.8197 11.97 25.8197 12.5244Z" stroke="white" stroke-miterlimit="10"/>
</g>
<defs>
<clipPath id="clip0_17_20">
<rect width="45" height="45" fill="white"/>
</clipPath>
</defs>
</svg>
